<svg width="16" height="16" viewBox="0 0 16 16" fill="none" xmlns="http://www.w3.org/2000/svg">
<path d="M15.3125 14.5094C14.5906 13.5578 13.1703 13 13.1703 8.73905C13.1703 4.36561 11.2391 2.6078 9.43905 2.18593C9.2703 2.14374 9.14843 2.08749 9.14843 1.90936V1.77342C9.14843 1.1453 8.6328 0.615612 8.00468 0.6203C7.37655 0.610925 6.86093 1.1453 6.86093 1.77342V1.90936C6.86093 2.0828 6.73905 2.14374 6.5703 2.18593C4.76562 2.61249 2.83905 4.36561 2.83905 8.73905C2.83905 13 1.41874 13.5531 0.696865 14.5094C0.232803 15.1234 0.673428 16 1.44218 16H14.5719C15.3359 16 15.7766 15.1187 15.3125 14.5094Z" fill="#222222"/>
</svg>
